<svg width="40" height="40" viewBox="0 0 40 40" fill="none" xmlns="http://www.w3.org/2000/svg">
<g clip-path="url(#clip0_419_1191)">
<path d="M37.4575 26.6643H30.5504V2.85714C30.5496 2.09963 30.2483 1.37337 29.7126 0.837729C29.177 0.302086 28.4507 0.000807354 27.6932 0H2.85714C2.09963 0.000807354 1.37337 0.302086 0.83773 0.837729C0.302086 1.37337 0.000807354 2.09963 0 2.85714V34.6641C0.00166183 36.0788 0.564413 37.4351 1.5648 38.4355C2.56518 39.4358 3.9215 39.9984 5.33621 40H34.3645C35.7521 39.9928 37.0807 39.4379 38.0613 38.456C39.0418 37.4742 39.5949 36.1448 39.6003 34.7572L39.6003 28.8072C39.5997 28.2391 39.3737 27.6944 38.972 27.2927C38.5703 26.8909 38.0256 26.665 37.4575 26.6643V26.6643ZM5.33621 38.5714C4.30025 38.5703 3.30704 38.1583 2.57448 37.4258C1.84191 36.6933 1.4298 35.7001 1.42857 34.6641V2.85714C1.429 2.4784 1.57965 2.11528 1.84747 1.84747C2.11528 1.57965 2.4784 1.429 2.85714 1.42857H27.6932C28.072 1.429 28.4351 1.57965 28.7029 1.84747C28.9707 2.11528 29.1214 2.4784 29.1218 2.85714V34.7573C29.1215 35.4719 29.2677 36.1791 29.5513 36.8351C29.8349 37.4911 30.25 38.082 30.7708 38.5714H5.33621ZM38.1717 34.7573C38.0241 39.798 30.7086 39.7969 30.5504 34.7572V28.0929H37.4575C37.6468 28.0931 37.8284 28.1684 37.9623 28.3023C38.0962 28.4362 38.1715 28.6178 38.1717 28.8072V34.7573Z" fill="#16182D"/>
<path d="M15.0921 20.3775C18.6328 19.9537 20.6557 16.326 21.3121 14.6266C22.1616 12.8676 21.734 8.2385 21.8298 6.30066C21.8298 6.15276 21.7839 6.00849 21.6984 5.88779C21.613 5.7671 21.4921 5.67591 21.3526 5.62683L15.5127 3.57398C15.3592 3.52026 15.192 3.52026 15.0384 3.57398L9.19787 5.62683C9.05835 5.6759 8.9375 5.76708 8.85203 5.88779C8.76656 6.00849 8.72068 6.15276 8.72073 6.30066C8.81787 8.26241 8.38633 12.847 9.23896 14.6265C9.931 16.3777 11.6121 19.4539 15.0921 20.3775ZM10.1493 6.80675L15.2756 5.00499L20.4011 6.80675V11.821C20.3523 13.3836 19.8385 14.8961 18.9255 16.1652C18.0125 17.4342 16.7417 18.4021 15.2757 18.9451C12.5245 18.1216 11.1482 15.57 10.5671 14.101C9.86211 12.6551 10.2367 8.40976 10.1493 6.80673V6.80675Z" fill="#16182D"/>
<path d="M24.6004 22.1428H5.95012C5.76315 22.1466 5.58511 22.2235 5.45421 22.357C5.32331 22.4906 5.24999 22.6701 5.25 22.8571C5.25001 23.0441 5.32334 23.2237 5.45424 23.3572C5.58515 23.4908 5.7632 23.5677 5.95017 23.5714H24.6004C24.7873 23.5677 24.9654 23.4908 25.0963 23.3572C25.2272 23.2237 25.3005 23.0441 25.3005 22.8571C25.3005 22.6701 25.2272 22.4906 25.0963 22.357C24.9654 22.2235 24.7873 22.1466 24.6004 22.1428V22.1428Z" fill="#16182D"/>
<path d="M24.6004 27.3877H5.95012C5.76315 27.3914 5.58511 27.4683 5.45421 27.6019C5.32331 27.7355 5.24999 27.915 5.25 28.102C5.25001 28.289 5.32334 28.4686 5.45424 28.6021C5.58515 28.7356 5.7632 28.8125 5.95017 28.8163H24.6004C24.7873 28.8125 24.9654 28.7356 25.0963 28.6021C25.2272 28.4685 25.3005 28.289 25.3005 28.102C25.3005 27.915 25.2272 27.7354 25.0963 27.6019C24.9654 27.4683 24.7873 27.3914 24.6004 27.3877Z" fill="#16182D"/>
<path d="M24.6004 32.6326H5.95012C5.76315 32.6363 5.58511 32.7132 5.45421 32.8468C5.32331 32.9803 5.24999 33.1599 5.25 33.3469C5.25001 33.5339 5.32334 33.7134 5.45424 33.847C5.58515 33.9805 5.7632 34.0574 5.95017 34.0611H24.6004C24.7873 34.0574 24.9654 33.9805 25.0963 33.847C25.2272 33.7134 25.3005 33.5339 25.3005 33.3469C25.3005 33.1599 25.2272 32.9803 25.0963 32.8468C24.9654 32.7132 24.7873 32.6363 24.6004 32.6326Z" fill="#16182D"/>
<path d="M14.1942 13.9661C14.3297 14.0922 14.5088 14.1608 14.6938 14.1575C14.8788 14.1542 15.0553 14.0792 15.1862 13.9483L18.1389 10.9963C18.2721 10.8622 18.3467 10.6808 18.3463 10.4918C18.346 10.3028 18.2708 10.1216 18.1371 9.98798C18.0035 9.85434 17.8223 9.77912 17.6333 9.77881C17.4443 9.7785 17.2629 9.85312 17.1288 9.98632L14.6637 12.4511L13.4039 11.2785C13.2646 11.1535 13.0817 11.0883 12.8948 11.0967C12.7078 11.1051 12.5316 11.1866 12.404 11.3236C12.2765 11.4606 12.2077 11.6421 12.2126 11.8292C12.2175 12.0163 12.2957 12.1941 12.4302 12.3242L14.1942 13.9661Z" fill="#16182D"/>
</g>
<defs>
<clipPath id="clip0_419_1191">
<rect width="40" height="40" fill="white"/>
</clipPath>
</defs>
</svg>
